# xmcd
#
# Track frame offsets: 
#        150
#        11607
#        23477
#        34076
#        45758
#        60308
#        75380
#        97836
#        108814
#        121484
#
# Disc length: 1794 seconds
#
# Revision: 0
# Processed by: cddbd v1.5.2PL0 Copyright (c) Steve Scherf et al.
# Submitted via: ExactAudioCopy v0.99pb4
#
DISCID=5c07000a
DTITLE=Waylon Jennings - Ladies Love Outlaws
DYEAR=1972
DGENRE=Country
TTITLE0=Ladies Love Outlaws
TTITLE1=Never Been To Spain
TTITLE2=Sure Didn't Take Him Long
TTITLE3=Crazy Ams
TTITLE4=Revelation
TTITLE5=Delta Dawn
TTITLE6=Frisco Depot
TTITLE7=Thanks
TTITLE8=I Think It's Time She Learned
TTITLE9=Under Your Spell Again
EXTD=
EXTT0=
EXTT1=
EXTT2=
EXTT3=
EXTT4=
EXTT5=
EXTT6=
EXTT7=
EXTT8=
EXTT9=
PLAYORDER=
